<?xml version="1.0" encoding="utf-8"?>
<!-- Generator: Adobe Illustrator 23.0.1, SVG Export Plug-In . SVG Version: 6.00 Build 0)  -->
<svg version="1.1" id="b7340503-1018-4be9-a649-13678c3e434c"
	 xmlns="http://www.w3.org/2000/svg" xmlns:xlink="http://www.w3.org/1999/xlink" x="0px" y="0px" viewBox="0 0 939 727"
	 style="enable-background:new 0 0 939 727;" xml:space="preserve">
<style type="text/css">
	.st0{fill:#E6E6E6;}
	.st1{fill:#4779FF;}
	.st2{opacity:0.2;enable-background:new    ;}
	.st3{fill:#3F3D56;}
	.st4{opacity:0.2;fill:#FFFFFF;enable-background:new    ;}
	.st5{fill:#FFB8B8;}
	.st6{fill:#F9A825;}
	.st7{opacity:0.5;fill:#FF6584;enable-background:new    ;}
	.st8{fill:#2F2E41;}
</style>
<path class="st0" d="M827.4,412.6l20.5-20.5c-1.9-13.6-4.5-27.1-7.9-40.4l-11.7,5.9l10.5-10.5c-4.4-16.4-8.3-27-8.3-27
	s-41.4,42.1-62.8,91.6l13.3,34.8L762.9,424c-2.1,5.8-3.8,11.8-5.1,17.9c-13.1,61.2-3.7,115,20.9,120.3S834,522.1,847,461
	c4.1-19,4-39.7,2-59.3L827.4,412.6z"/>
<path class="st0" d="M888.4,455.3l28.2-7c5.4-12.6,10.2-25.5,14.1-38.7l-13.1-1l14.4-3.6c4.8-16.3,6.9-27.4,6.9-27.4
	s-57.2,14.7-101.1,45.9l-6.7,36.7l-3.9-28.5c-4.8,3.9-9.3,8.2-13.6,12.7c-42.8,45.6-62.6,96.5-44.3,113.8s68-5.7,110.8-51.3
	c13.3-14.1,24-31.9,32.4-49.7L888.4,455.3z"/>
<path class="st0" d="M619.3,202l6.9-54.4c-18.5-18.2-38-35.3-58.5-51.2l-10.6,22.4l3.5-27.8c-25.5-19.5-43.6-30.8-43.6-30.8
	s-13.1,110.7,12,209.1l60,36.7l-52.9-12.5c3.7,11.1,8,22,13.1,32.6c51.1,106.4,127.2,175.9,170.1,155.4s36.2-123.5-14.9-229.9
	c-15.8-33-39.9-63.9-65.5-90.9L619.3,202z"/>
<path class="st0" d="M759.6,195.2l34-43c-6.5-25.1-14.3-49.9-23.6-74.1l-20.7,13.6l17.4-22c-11.7-29.9-21.4-48.9-21.4-48.9
	s-68.4,88-97.8,185.2l32.4,62.4l-38.8-38c-2.6,11.4-4.5,23-5.7,34.6c-11.3,117.5,18,216.4,65.3,220.9s94.8-87,106.1-204.5
	c3.5-36.4-1.1-75.3-9.1-111.6L759.6,195.2z"/>
<path class="st0" d="M137.9,212.8l-3.3-56.5c-21.8-14.9-44.3-28.5-67.6-40.7l-6.3,24.7L59,111.4C30.1,96.5,10,88.6,10,88.6
	s7.8,114.7,51.1,209.7l66.4,25.7l-54.8-2.5c5.7,10.6,12.1,20.8,19,30.5c70.6,98.1,159.1,154,197.7,124.9
	c38.6-29.1,12.7-132.2-57.8-230.2c-21.9-30.4-51.5-57.1-81.9-79.6L137.9,212.8z"/>
<path class="st0" d="M274.7,175.8l26.5-50.6c-11.5-24.5-24.4-48.3-38.5-71.3l-18.5,18l13.6-25.9C240,17.6,226.4,0,226.4,0
	s-53.1,103.4-64.3,208.7l45.3,57.7L160.2,235c-0.5,12.2-0.2,24.4,0.9,36.6c11.2,122.5,60.3,218.2,109.7,213.7s80.3-107.5,69.1-230
	c-3.5-38-15.7-76.9-30.9-112.6L274.7,175.8z"/>
<ellipse class="st0" cx="423.2" cy="678" rx="35" ry="10"/>
<ellipse class="st0" cx="804.2" cy="717" rx="35" ry="10"/>
<ellipse class="st0" cx="877.2" cy="635" rx="35" ry="10"/>
<ellipse class="st0" cx="733.7" cy="608.4" rx="26.5" ry="7.6"/>
<ellipse class="st0" cx="159.7" cy="603.4" rx="17.5" ry="5.4"/>
<ellipse class="st0" cx="90.7" cy="664.4" rx="17.5" ry="5.4"/>
<ellipse class="st0" cx="90.7" cy="568.4" rx="17.5" ry="5.4"/>
<path class="st1" d="M840.1,586l-169.6-6l-89.4,8.5l-152.8,14.6l-57.5,5.5l-133.1,44.4c-1.6,0.5-3.2-0.3-3.8-1.9
	c-0.2-0.6-0.2-1.4,0-2l0,0l23.1-61.1l-2.4-1.8l-63.5-46.7l-0.3-0.3l-82.4-12.6c-3.8-0.6-6.4-4.1-5.8-7.9c0.2-1,0.6-2,1.2-2.9
	l125.5-180.1l65.9-94.6l7.1-10.3l274.3-3.8l267.8,350.4c1.8,2.3,1.3,5.6-1,7.3C842.5,585.6,841.3,586,840.1,586z"/>
<polygon class="st2" points="366.6,245.6 254.6,586.2 191.1,539.5 229.2,335.8 295,241 295.2,241.2 "/>
<path class="st3" d="M266.6,376.1c-12.7,30.5-17.2,56-32.3,51.4c-20.6-6.3,1-28.6,13.7-59.1c12.7-30.5,21.7-54,32.3-51.4
	C300.1,321.6,279.3,345.5,266.6,376.1z"/>
<path class="st1" d="M295.4,314.9c0-8.5-6.9-15.4-15.4-15.4c0,0,0,0,0,0c-0.3,0-0.7,0-1,0l-14.5-1.8c-1.7-0.6-3.4-0.9-5.2-0.9
	c-0.5,0-1,0-1.4,0.1l-0.6-0.1l0,0.1c-8.4,1.1-14.3,8.9-13.2,17.3c0.8,5.7,4.6,10.4,10,12.4l0,0.3l1.4,0.2c1.3,0.3,2.6,0.5,3.9,0.5
	c0.1,0,0.3,0,0.4,0l14.8,1.7c1.7,0.7,3.6,1,5.5,1c0.7,0,1.4-0.1,2.1-0.1l1.3,0.1l0-0.4C290.4,328.4,295.4,322.2,295.4,314.9z"/>
<path class="st4" d="M295.4,314.9c0-8.5-6.9-15.4-15.4-15.4c0,0,0,0,0,0c-0.3,0-0.7,0-1,0l-14.5-1.8c-1.7-0.6-3.4-0.9-5.2-0.9
	c-0.5,0-1,0-1.4,0.1l-0.6-0.1l0,0.1c-8.4,1.1-14.3,8.9-13.2,17.3c0.8,5.7,4.6,10.4,10,12.4l0,0.3l1.4,0.2c1.3,0.3,2.6,0.5,3.9,0.5
	c0.1,0,0.3,0,0.4,0l14.8,1.7c1.7,0.7,3.6,1,5.5,1c0.7,0,1.4-0.1,2.1-0.1l1.3,0.1l0-0.4C290.4,328.4,295.4,322.2,295.4,314.9z"/>
<path class="st3" d="M89.9,525.2l-1.8-0.9c45.5-86.8,174.3-272.2,175.6-274l1.6,1.1C264.1,253.2,135.4,438.5,89.9,525.2z"/>
<path class="st3" d="M229.4,655.2l-1.9-0.5c0.9-3.4,94.2-345.5,126.6-403.2l1.8,1C323.5,309.9,230.3,651.7,229.4,655.2z"/>
<path class="st3" d="M852.3,588.9C802.6,507,614.9,253.4,613,250.8l1.6-1.2c1.9,2.6,189.7,256.3,239.4,338.2L852.3,588.9z"/>
<ellipse transform="matrix(1 -1.608842e-03 1.608842e-03 1 -1.0539 0.364)" class="st3" cx="225.7" cy="655.3" rx="7" ry="9"/>
<ellipse transform="matrix(1 -1.608842e-03 1.608842e-03 1 -0.8365 0.146)" class="st3" cx="90.4" cy="520" rx="7" ry="9"/>
<ellipse transform="matrix(1 -1.608842e-03 1.608842e-03 1 -0.939 1.375)" class="st3" cx="854.2" cy="584.4" rx="7" ry="9"/>
<path class="st3" d="M255.9,260.2l378.6,4.1C634,199.8,581.6,148,517.3,148l-144.5,0.2c-60.4,0.1-111.6,47.4-116.5,107.6
	L255.9,260.2z"/>
<path class="st2" d="M588.6,385.3H450.2c-7,0-12.7,5.7-12.7,12.7c0,0.1,0,0.1,0,0.2l0.1,10.1l1.2,108.3l0,2.1l0,3.5l0,3.4l0.2,20.3
	c0.1,6.9,5.6,12.4,12.5,12.6c0.3,0,0.7,0,1,0l32.9-2l47.5-2.9l16.8-1l3.7-0.2l26.2-1.6h0l9.6-0.6c6.7-0.4,12-6,12-12.7V398
	C601.3,391,595.6,385.3,588.6,385.3z"/>
<path class="st1" d="M617.1,367.6c-1,0.1-1.9,0.6-2.5,1.4l-15.2,0v-4c0-7-5.7-12.7-12.7-12.7H448.2c-7,0-12.7,5.7-12.7,12.7
	c0,0.1,0,0.1,0,0.2l0,4.2l-9.8,0c-0.5-0.6-1.3-0.9-2.1-1c-3.4,0-6.2,7.5-6.2,16.8s2.8,16.8,6.3,16.8c1.2-0.1,2.3-0.9,2.9-1.9
	l188-0.3c0.6,0.8,1.5,1.4,2.5,1.4c3.4,0,6.2-7.5,6.2-16.8S620.5,367.6,617.1,367.6z"/>
<path class="st4" d="M540.3,320.8c-1,0.1-1.9,0.6-2.5,1.4l-15.2,0v-4c0-7-5.7-12.7-12.7-12.7H371.4c-7,0-12.7,5.7-12.7,12.7
	c0,0.1,0,0.1,0,0.2l0,4.2l-9.8,0c-0.5-0.6-1.3-0.9-2.1-1c-3.4,0-6.2,7.5-6.2,16.8s2.8,16.8,6.3,16.8c1.2-0.1,2.3-0.9,2.9-1.9
	l188-0.3c0.6,0.8,1.5,1.4,2.5,1.4c3.4,0,6.2-7.5,6.2-16.8S543.8,320.8,540.3,320.8z"/>
<path class="st5" d="M601.6,580.1L601.6,580.1c-3.3,3.1-8.4,2.9-11.5-0.4c-0.5-0.5-0.9-1.1-1.3-1.8l-7.5-14.4l3-6.5l16.1,10.3
	c3.8,2.4,4.9,7.5,2.5,11.2C602.5,579.1,602.1,579.6,601.6,580.1z"/>
<path class="st3" d="M634.1,664.3c-0.4-3.5-3.3-6.1-6.8-6c-3.1,0-5.9,2.1-6.7,5.2l0,0l-6.7,32.4c-0.2,0.9-0.3,1.9-0.3,2.9
	c0,7.3,6.1,12.4,13.7,12.4S641,706,641,698.7c0-1.2-0.2-2.3-0.5-3.5L634.1,664.3z"/>
<path class="st3" d="M684.5,678.8c-0.7-0.6-1.4-1.1-2.2-1.6l-25.5-17.8c-2.5-1.6-5.1-1.5-7,0.4c-1.7,1.6-2,4.3-0.7,6.3l19.2,25.3
	c0.4,0.6,0.9,1.2,1.5,1.7c3.3,3.7,10.7,3.9,14.8,0C688.5,689.1,688.5,682,684.5,678.8z"/>
<path class="st3" d="M703.6,652.5h-25.8c-1.7-0.1-3.2,1.3-3.3,3c0,1.6,1,3,2.5,3.4l24.3,7.5c3.5,0.8,8.3-2.3,8.3-6.3
	C709.7,655.1,706.9,652.5,703.6,652.5z"/>
<path class="st3" d="M580.9,655.4c-0.1-1.8-1.6-3.1-3.4-3c0,0,0,0-0.1,0h-25.8c-3.2,0-6,3.5-6,7.4s4.6,7.3,8.2,6.4l24.7-7.5
	C580.1,658.4,581.1,657,580.9,655.4z"/>
<path class="st3" d="M598.6,659.5l-25.5,17.7c-0.8,0.4-1.5,1-2.2,1.6c-3.9,3.6-4.1,9.7-0.5,13.6l0,0c0.2,0.2,0.3,0.3,0.5,0.5
	c4.1,3.9,10.6,3.9,14.8,0c0.5-0.5,1-1.1,1.5-1.7l19.2-25.1c1.3-2,1-4.6-0.7-6.2C603.8,658,600.8,657.8,598.6,659.5z"/>
<path class="st3" d="M638.2,624.8c0.3-0.4,0.5-0.9,0.5-1.5c0-3.1-6.1-5.3-13.7-5.3s-13.7,2.2-13.7,5.3c0,0.4,0.1,0.9,0.3,1.2
	l6.7,13.8l0,0c0.8,1.3,3.5,2.2,6.7,2.2c3.5,0,6.5-1.1,6.8-2.6L638.2,624.8z"/>
<path class="st3" d="M682.3,625.8c-4.1-1.7-11.4-1.6-14.8,0c-0.5,0.2-1,0.5-1.5,0.7l-19.2,10.7c-1.3,0.9-1,2,0.7,2.7
	c2.3,0.8,4.7,0.8,7,0.2l25.5-7.6c0.7-0.2,1.5-0.4,2.2-0.7C686.2,630.5,686.3,627.5,682.3,625.8z"/>
<path class="st3" d="M707.5,639.8c0-1.7-4.8-3-8.3-2.7l-24.3,3.2c-1.5,0.2-2.5,0.7-2.5,1.4s1.6,1.3,3.3,1.3h25.8
	C704.7,643,707.5,641.9,707.5,639.8z"/>
<path class="st3" d="M576.3,640.3l-24.7-3.2c-3.5-0.3-8.2,1.1-8.2,2.7s2.7,3.2,6,3.2h25.8c1.8,0,3.5-0.5,3.5-1.3
	S577.9,640.5,576.3,640.3z"/>
<path class="st3" d="M603.5,639.9c1.8-0.7,2-1.8,0.7-2.7L585,626.6c-0.5-0.3-1-0.5-1.5-0.7c-4.8-1.7-10-1.7-14.8,0
	c-0.2,0.1-0.3,0.1-0.5,0.2c-3.6,1.7-3.4,4.2,0.5,5.8c0.7,0.3,1.4,0.5,2.2,0.7l25.5,7.5C598.7,640.7,601.2,640.7,603.5,639.9z"/>
<path class="st6" d="M677.5,622.6c0,39.8-22.2,40.5-49.5,40.5s-72.2-7.9-49.5-40.5c24-34.4,65.1-100,49.5-103.5
	C628,519.1,677.5,582.9,677.5,622.6z"/>
<path class="st7" d="M645.4,647.1c0,15.7-8.8,16-19.6,16s-28.6-3.1-19.6-16c9.5-13.6,25.8-39.6,19.6-41
	C625.8,606.1,645.4,631.3,645.4,647.1z"/>
<path class="st3" d="M601.3,530.3v7.1c0,6.7-5.2,12.3-12,12.7l-136.7,8.3c-7,0.4-13-4.9-13.5-11.9c0-0.2,0-0.4,0-0.6l-0.3-29.2
	l82.7-1.3L601.3,530.3z"/>
<path class="st0" d="M579,565.5l-61.7-32c-0.6-0.3-1-0.8-1.2-1.5l-13.4-53.9c-1.6-6.5,2-13.1,8.3-15.3l3.2-1.1
	c2.9-1,6.1,0.5,7.1,3.4c0,0.1,0.1,0.2,0.1,0.3l13.2,47.5c0.1,0.4,0.4,0.8,0.7,1.1l50.2,41.6c0.9,0.7,1.1,2.1,0.4,3l-4.2,6.1
	C581.3,565.7,580,566,579,565.5z"/>
<path class="st8" d="M538.4,481.6c-29.9-15.7-61.2-23.7-94.8-19c10.1-17.1,17.6-33,17.1-44.9c-0.4-7.7,3-15.2,9.2-19.9
	c4.9-3.6,10.8-5.6,16.9-5.6l0,0c5.4-2.4,11.6-2.7,17.2-0.7c4.8,1.8,8.6,5.6,10.5,10.4c1.1,2.8,3.6,5.2,7.2,7.4
	c3.3,1.9,6,4.7,7.8,8.1c2.4,4.7,2.5,9.4-0.6,14.2C540.5,443.9,540.5,462.2,538.4,481.6z"/>
<circle class="st5" cx="496" cy="421.3" r="21"/>
<path class="st5" d="M506,466.7l-24.4,2.5c1.3-14.3,1.8-27.5,0-37.4H506C501.3,447.6,501.7,458.8,506,466.7z"/>
<path class="st0" d="M519.1,466.1c0,2.2-0.1,4.4-0.1,6.5c-0.5,15.3-2.4,29.2-7.7,39.3c-1.1,2.1-2.3,4.1-3.8,6c0,0,0,0,0,0
	c-0.1,0.1-0.2,0.3-0.3,0.4c-1.1,1.3-2.3,2.6-3.6,3.7l-10,10.5L493,533l-2.9,2l-15,10l-36.1-19.4l0-3.4l0-3.5c8-11.4,13-26.2,16.2-43
	c0.9-4.6,1.6-9.4,2.2-14.3c0.4-3.4,0.8-6.8,1.1-10.4c0.1-1.1,0.4-2.1,1-3c0,0,0,0,0,0c0,0,0,0,0,0c1.5-2,4.6-1.9,8.3-2.1
	c5.2-0.3,10.3-3,14.9-0.4c0.1,0.1,0.2,0.1,0.3,0.2l13.5,15l6.2-6.7l0.3-0.3l12.8,5.5C518.4,460.3,519.8,463.3,519.1,466.1
	L519.1,466.1z"/>
<path class="st8" d="M490.6,539.6c0,2.6-0.5,5.1-1.4,7.5l-3.7,9.3l-32.9,2c-0.3,0-0.7,0-1,0c-6.9-0.1-12.4-5.7-12.5-12.6l-0.2-20.3
	l0-3.4l12,5.1l11.7-6.3c0.6-0.3,1.3-0.5,2-0.7c0.9-0.3,1.7-0.5,2.6-0.6h0c0.4-0.1,0.9-0.1,1.3-0.2c4.9-0.5,9.9,0.8,13.9,3.8
	c2.3,1.7,4.3,3.9,5.7,6.4c0.1,0.2,0.2,0.4,0.3,0.5c0.8,1.5,1.4,3.1,1.8,4.7C490.4,536.5,490.6,538.1,490.6,539.6z"/>
<polygon class="st2" points="481.3,479.9 485.6,499.9 512.2,522.8 488.8,498.8 "/>
<polygon class="st2" points="456.8,489.4 464.8,521.8 488.3,530.3 466.3,519.3 "/>
<path class="st8" d="M521.2,422.5c-15.4-7.1-32.9-9.1-48.4-1.5l2-18l33.9-5.5L521.2,422.5z"/>
<polygon class="st3" points="645.3,580.3 531.8,560.8 533.2,553.9 645.3,580.3 "/>
<path class="st5" d="M550.7,565.1L550.7,565.1c-3.3,3.1-8.4,2.9-11.5-0.4c-0.5-0.5-0.9-1.1-1.3-1.8l-7.5-14.4l3-6.5l16.1,10.3
	c3.8,2.4,4.9,7.5,2.5,11.2C551.6,564.1,551.2,564.6,550.7,565.1z"/>
<path class="st0" d="M528.1,550.5l-61.7-32c-0.6-0.3-1-0.8-1.2-1.5l-13.4-53.9c-1.6-6.5,2-13.1,8.3-15.3l3.2-1.1
	c2.9-1,6.1,0.5,7.1,3.4c0,0.1,0.1,0.2,0.1,0.3l13.2,47.5c0.1,0.4,0.4,0.8,0.7,1.1l50.2,41.6c0.9,0.7,1.1,2.1,0.4,3l-4.2,6.1
	C530.4,550.8,529.2,551.1,528.1,550.5z"/>
<path class="st0" d="M633.1,583.9c1.1,0.2,2.2-0.5,2.5-1.6l1.1-5.7c0.2-1.1-0.5-2.2-1.6-2.5l-16.5-3.3c-1.1-0.2-2.2,0.5-2.5,1.6
	l-1.1,5.7c-0.2,1.1,0.5,2.2,1.6,2.5l0,0L633.1,583.9z"/>
</svg>
